<?xml version="1.0" encoding="UTF-8" standalone="no"?>
<svg width="200" height="200" viewBox="0 0 200 200" xmlns="http://www.w3.org/2000/svg">
  <!-- Background circle -->
  <circle cx="100" cy="100" r="90" fill="#1453AD" />
  
  <!-- DNA double helix - inspired by CELERA logo style -->
  <g transform="translate(100, 100) scale(0.75)">
    <!-- First DNA strand - more dynamic curve -->
    <path d="M-30,-70 C-40,-50 -10,-40 10,-30 C30,-20 40,0 20,20 C0,40 -40,50 -30,70" 
          fill="none" stroke="#A0D8F1" stroke-width="6" stroke-linecap="round" transform="translate(0,-9)" />
    
    <!-- Second DNA strand - increased vertical offset to show major/minor grooves -->
    <path d="M30,-70 C40,-50 10,-40 -10,-30 C-30,-20 -40,0 -20,20 C0,40 40,50 30,70" 
          fill="none" stroke="#A0D8F1" stroke-width="6" stroke-linecap="round" transform="translate(0,9)" />
    
    <!-- Methylation markers (aligned to helix path, enhanced brightness) -->
    <circle cx="10" cy="-30" r="3" fill="#FFFFFF" stroke="#FFFFFF" stroke-width="1.2" />
    <circle cx="-10" cy="-20" r="3" fill="#FFFFFF" stroke="#FFFFFF" stroke-width="1.2" />
    <circle cx="-20" cy="38" r="3" fill="#FFFFFF" stroke="#FFFFFF" stroke-width="1.2" />
  </g>
  
  <!-- Box shape - represents package management, semi-transparent overlay on DNA -->
  <path d="M100 50 L150 75 L150 125 L100 150 L50 125 L50 75 Z" 
        fill="#0078D7" fill-opacity="0.3" stroke="#FFFFFF" stroke-width="2" />
  
  <!-- CBP text -->
  <text x="100" y="180" font-family="Arial, sans-serif" font-size="24" font-weight="bold" text-anchor="middle" fill="#FFFFFF">cbp</text>
</svg>
